<?xml version="1.0" encoding="UTF-8" standalone="no"?>
<!-- Created with Inkscape (http://www.inkscape.org/) -->

<svg
   xmlns:dc="http://purl.org/dc/elements/1.1/"
   xmlns:cc="http://creativecommons.org/ns#"
   xmlns:rdf="http://www.w3.org/1999/02/22-rdf-syntax-ns#"
   xmlns:svg="http://www.w3.org/2000/svg"
   xmlns="http://www.w3.org/2000/svg"
   xmlns:sodipodi="http://sodipodi.sourceforge.net/DTD/sodipodi-0.dtd"
   xmlns:inkscape="http://www.inkscape.org/namespaces/inkscape"
   width="123.84528"
   height="40.250004"
   id="svg4152"
   version="1.1"
   inkscape:version="0.48.4 r9939"
   sodipodi:docname="infuanfu_pin.svg"
   inkscape:export-filename="/home/gjehle/infuanfu_pin.png"
   inkscape:export-xdpi="300"
   inkscape:export-ydpi="300">
  <defs
     id="defs4154" />
  <sodipodi:namedview
     id="base"
     pagecolor="#ffffff"
     bordercolor="#666666"
     borderopacity="1.0"
     inkscape:pageopacity="1"
     inkscape:pageshadow="2"
     inkscape:zoom="5.6"
     inkscape:cx="88.258409"
     inkscape:cy="3.9204905"
     inkscape:document-units="px"
     inkscape:current-layer="layer1"
     showgrid="false"
     fit-margin-top="0"
     fit-margin-left="0"
     fit-margin-right="0"
     fit-margin-bottom="0"
     inkscape:window-width="1366"
     inkscape:window-height="702"
     inkscape:window-x="0"
     inkscape:window-y="27"
     inkscape:window-maximized="1" />
  <metadata
     id="metadata4157">
    <rdf:RDF>
      <cc:Work
         rdf:about="">
        <dc:format>image/svg+xml</dc:format>
        <dc:type
           rdf:resource="http://purl.org/dc/dcmitype/StillImage" />
        <dc:title></dc:title>
      </cc:Work>
    </rdf:RDF>
  </metadata>
  <g
     inkscape:label="Layer 1"
     inkscape:groupmode="layer"
     id="layer1"
     transform="translate(-255.21177,-312.22923)">
    <g
       transform="translate(111.08776,-500.17702)"
       id="g4167">
      <path
         sodipodi:nodetypes="cscccccccccccscccccscccssccccccscccccc"
         inkscape:connector-curvature="0"
         id="path4063"
         d="m 182.82163,812.91631 c 0,0 -3.11326,-0.0173 -6.23831,1.79951 -1.56872,0.91199 -3.15822,2.53784 -4.35881,4.59875 l -1.4796,0 -19.1548,0 -0.08,0 c -3.67171,0.0833 -6.94131,3.48595 -6.87813,7.15806 l 0,12.59658 c -0.0421,3.65888 3.21995,7.03479 6.87813,7.11807 0.0933,10e-4 0.18662,10e-4 0.27992,0 l 5.75844,0 0.7198,0 12.03674,0 c 0.50273,3.29174 3.6282,5.9761 6.95811,5.9761 3.32991,0 6.45537,-2.68436 6.95811,-5.9761 l 31.35149,0 5.91839,0 c 0.34594,0.0256 0.69378,0.0256 1.03972,0 l 11.75681,0 c 0.50273,3.29174 3.6282,5.9761 6.95811,5.9761 3.32991,0 6.45537,-2.68436 6.95811,-5.9761 l 7.67791,-0.27993 c 1.42948,-0.0713 2.87198,-0.24997 4.35882,-0.63983 1.06378,-0.27891 2.17574,-0.59999 3.59902,-1.55957 1.42329,-0.95959 3.63902,-3.38106 3.63902,-6.67819 l 0,-10.55713 c 0.0452,-3.59465 -3.08796,-6.93418 -6.67819,-7.11807 l 0,-0.0399 -0.43988,0 -5.83842,0 c -0.36599,-3.37219 -3.48663,-6.22067 -6.87813,-6.27829 0,0 -3.08002,-0.11952 -6.35827,1.51959 -1.7006,0.85029 -3.502,2.56121 -4.87868,4.7587 l -1.51959,0 -0.15995,0 -44.74785,0 c -0.3197,-3.50713 -3.63717,-6.47247 -7.15806,-6.39826 z"
         style="font-size:medium;font-style:normal;font-variant:normal;font-weight:normal;font-stretch:normal;text-indent:0;text-align:start;text-decoration:none;line-height:normal;letter-spacing:normal;word-spacing:normal;text-transform:none;direction:ltr;block-progression:tb;writing-mode:lr-tb;text-anchor:start;baseline-shift:baseline;color:#000000;fill:#ffffff;fill-opacity:1;stroke:#000000;stroke-width:1;stroke-linecap:round;stroke-linejoin:round;stroke-miterlimit:4;stroke-opacity:1;stroke-dasharray:none;marker:none;visibility:visible;display:inline;overflow:visible;enable-background:accumulate;font-family:Sans;-inkscape-font-specification:Sans" />
      <g
         transform="matrix(1.2796526,0,0,1.2796526,-40.277804,-8.3292336)"
         style="stroke:#000000;stroke-width:3.82916427;stroke-miterlimit:4;stroke-opacity:1;stroke-dasharray:none"
         id="g4065">
        <path
           inkscape:connector-curvature="0"
           id="path4067"
           d="m 150,652.36217 0,9.8322"
           style="fill:none;stroke:#000000;stroke-width:3.82916427;stroke-linecap:round;stroke-linejoin:round;stroke-miterlimit:4;stroke-opacity:1;stroke-dasharray:none" />
        <path
           inkscape:connector-curvature="0"
           id="path4069"
           d="m 155,662.19437 0,-9.8322 c 5,0 5,9.8322 10,9.8322 l 0,-9.8322"
           style="fill:none;stroke:#000000;stroke-width:3.82916427;stroke-linecap:round;stroke-linejoin:round;stroke-miterlimit:4;stroke-opacity:1;stroke-dasharray:none"
           sodipodi:nodetypes="cccc" />
        <path
           inkscape:connector-curvature="0"
           id="path4071"
           d="m 170,667.36218 0,-15 c 0,-5 4.47936,-5.10413 4.47936,-5.10413"
           style="fill:none;stroke:#000000;stroke-width:3.82916427;stroke-linecap:round;stroke-linejoin:round;stroke-miterlimit:4;stroke-opacity:1;stroke-dasharray:none"
           sodipodi:nodetypes="ccc" />
        <path
           inkscape:connector-curvature="0"
           id="path4073"
           d="m 175,652.36217 0,8.25905 c 0,1.96644 10,1.96644 10,0 l 0,-8.25905"
           style="fill:none;stroke:#000000;stroke-width:3.82916427;stroke-linecap:round;stroke-linejoin:round;stroke-miterlimit:4;stroke-opacity:1;stroke-dasharray:none"
           sodipodi:nodetypes="cccc" />
        <path
           inkscape:connector-curvature="0"
           id="path4075"
           d="m 194.99818,662.03818 -4.94612,0.0356 L 190,653.93533 c 0,-1.96644 10,-1.96644 10,0 l 0,8.25904"
           style="fill:none;stroke:#000000;stroke-width:3.82916427;stroke-linecap:round;stroke-linejoin:round;stroke-miterlimit:4;stroke-opacity:1;stroke-dasharray:none"
           sodipodi:nodetypes="ccccc" />
        <path
           inkscape:connector-curvature="0"
           id="path4077"
           d="m 225,652.36217 0,8.25905 c 0,1.96644 10,1.96644 10,0 l 0,-8.25905"
           style="fill:none;stroke:#000000;stroke-width:3.82916427;stroke-linecap:round;stroke-linejoin:round;stroke-miterlimit:4;stroke-opacity:1;stroke-dasharray:none"
           sodipodi:nodetypes="cccc" />
        <path
           sodipodi:nodetypes="ccc"
           style="fill:none;stroke:#000000;stroke-width:3.82916427;stroke-linecap:round;stroke-linejoin:round;stroke-miterlimit:4;stroke-opacity:1;stroke-dasharray:none"
           d="m 220,667.36218 0,-15 c 0,-5 5,-5 5,-5"
           id="path4079"
           inkscape:connector-curvature="0" />
        <path
           sodipodi:nodetypes="cccc"
           style="fill:none;stroke:#000000;stroke-width:3.82916427;stroke-linecap:round;stroke-linejoin:round;stroke-miterlimit:4;stroke-opacity:1;stroke-dasharray:none"
           d="m 205,662.19437 0,-9.8322 c 5,0 5,9.8322 10,9.8322 l 0,-9.8322"
           id="path4081"
           inkscape:connector-curvature="0" />
      </g>
      <g
         id="g4083"
         style="stroke:#308aff;stroke-width:0.78146213;stroke-opacity:1"
         transform="matrix(1.2796526,0,0,1.2796526,-40.277804,-8.3292336)">
        <path
           style="fill:none;stroke:#308aff;stroke-width:2.34438634;stroke-linecap:round;stroke-linejoin:round;stroke-miterlimit:4;stroke-opacity:1;stroke-dasharray:none"
           d="m 150,652.36217 0,9.8322"
           id="path4085"
           inkscape:connector-curvature="0" />
        <path
           sodipodi:nodetypes="cccc"
           style="fill:none;stroke:#308aff;stroke-width:2.34438634;stroke-linecap:round;stroke-linejoin:round;stroke-miterlimit:4;stroke-opacity:1;stroke-dasharray:none"
           d="m 155,662.19437 0,-9.8322 c 5,0 5,9.8322 10,9.8322 l 0,-9.8322"
           id="path4087"
           inkscape:connector-curvature="0" />
        <path
           sodipodi:nodetypes="ccc"
           style="fill:none;stroke:#308aff;stroke-width:2.34438634;stroke-linecap:round;stroke-linejoin:round;stroke-miterlimit:4;stroke-opacity:1;stroke-dasharray:none"
           d="m 170,667.36218 0,-15 c 0,-5 4.47936,-5.10413 4.47936,-5.10413"
           id="path4089"
           inkscape:connector-curvature="0" />
        <path
           sodipodi:nodetypes="cccc"
           style="fill:none;stroke:#308aff;stroke-width:2.34438634;stroke-linecap:round;stroke-linejoin:round;stroke-miterlimit:4;stroke-opacity:1;stroke-dasharray:none"
           d="m 175,652.36217 0,8.25905 c 0,1.96644 10,1.96644 10,0 l 0,-8.25905"
           id="path4091"
           inkscape:connector-curvature="0" />
        <path
           sodipodi:nodetypes="ccccc"
           style="fill:none;stroke:#308aff;stroke-width:2.34438634;stroke-linecap:round;stroke-linejoin:round;stroke-miterlimit:4;stroke-opacity:1;stroke-dasharray:none"
           d="m 194.99818,662.03818 -4.94612,0.0356 L 190,653.93533 c 0,-1.96644 10,-1.96644 10,0 l 0,8.25904"
           id="path4093"
           inkscape:connector-curvature="0" />
        <path
           sodipodi:nodetypes="cccc"
           style="fill:none;stroke:#308aff;stroke-width:2.34438634;stroke-linecap:round;stroke-linejoin:round;stroke-miterlimit:4;stroke-opacity:1;stroke-dasharray:none"
           d="m 225,652.36217 0,8.25905 c 0,1.96644 10,1.96644 10,0 l 0,-8.25905"
           id="path4095"
           inkscape:connector-curvature="0" />
        <path
           inkscape:connector-curvature="0"
           id="path4097"
           d="m 220,667.36218 0,-15 c 0,-5 5,-5 5,-5"
           style="fill:none;stroke:#308aff;stroke-width:2.34438634;stroke-linecap:round;stroke-linejoin:round;stroke-miterlimit:4;stroke-opacity:1;stroke-dasharray:none"
           sodipodi:nodetypes="ccc" />
        <path
           inkscape:connector-curvature="0"
           id="path4099"
           d="m 205,662.19437 0,-9.8322 c 5,0 5,9.8322 10,9.8322 l 0,-9.8322"
           style="fill:none;stroke:#308aff;stroke-width:2.34438634;stroke-linecap:round;stroke-linejoin:round;stroke-miterlimit:4;stroke-opacity:1;stroke-dasharray:none"
           sodipodi:nodetypes="cccc" />
      </g>
    </g>
  </g>
</svg>
